<svg width="87" height="18" viewBox="0 0 87 18" fill="none" xmlns="http://www.w3.org/2000/svg">
<path d="M23.029 13.052C22.821 13.052 22.6 13.0347 22.366 13C22.132 12.9567 21.911 12.8743 21.703 12.753C21.495 12.6317 21.326 12.4497 21.196 12.207C21.066 11.9557 21.001 11.6177 21.001 11.193V5.356C21.001 4.98333 21.053 4.67567 21.157 4.433C21.2697 4.18167 21.417 3.98667 21.599 3.848C21.781 3.70067 21.9847 3.59667 22.21 3.536C22.4353 3.46667 22.6607 3.432 22.886 3.432C23.4233 3.44067 23.9217 3.45367 24.381 3.471C24.8403 3.47967 25.2737 3.49267 25.681 3.51C26.097 3.51867 26.5 3.53167 26.89 3.549V4.381H23.146C22.808 4.381 22.5393 4.472 22.34 4.654C22.1407 4.836 22.041 5.12633 22.041 5.525V7.787L26.318 7.852V8.645L22.041 8.71V10.959C22.041 11.2797 22.093 11.5223 22.197 11.687C22.3097 11.8517 22.457 11.96 22.639 12.012C22.821 12.064 23.0073 12.09 23.198 12.09H26.89V12.922C26.4913 12.948 26.071 12.9697 25.629 12.987C25.1957 13.0043 24.758 13.0173 24.316 13.026C23.8827 13.0347 23.4537 13.0433 23.029 13.052ZM30.4379 13.013C30.0392 13.013 29.7055 12.9437 29.4369 12.805C29.1682 12.6577 28.9645 12.4237 28.8259 12.103C28.6872 11.7737 28.6179 11.3317 28.6179 10.777V3.081H29.6449V10.647C29.6449 11.063 29.6839 11.3793 29.7619 11.596C29.8399 11.804 29.9525 11.9513 30.0999 12.038C30.2472 12.116 30.4205 12.168 30.6199 12.194L31.3219 12.272V13.013H30.4379ZM35.0912 13.078C34.3632 13.078 33.7868 12.9697 33.3622 12.753C32.9462 12.5363 32.6472 12.168 32.4652 11.648C32.2832 11.128 32.1922 10.4173 32.1922 9.516C32.1922 8.59733 32.2832 7.88233 32.4652 7.371C32.6558 6.851 32.9635 6.487 33.3882 6.279C33.8128 6.071 34.3848 5.967 35.1042 5.967C35.7195 5.967 36.2178 6.03633 36.5992 6.175C36.9892 6.31367 37.2752 6.552 37.4572 6.89C37.6478 7.21933 37.7432 7.67867 37.7432 8.268C37.7432 8.67533 37.6608 9.00467 37.4962 9.256C37.3402 9.49867 37.1105 9.67633 36.8072 9.789C36.5125 9.893 36.1615 9.945 35.7542 9.945H33.2192C33.2278 10.5083 33.2885 10.9633 33.4012 11.31C33.5138 11.648 33.7175 11.895 34.0122 12.051C34.3155 12.1983 34.7575 12.272 35.3382 12.272H37.5742V12.896C37.1755 12.948 36.7855 12.9913 36.4042 13.026C36.0228 13.0607 35.5852 13.078 35.0912 13.078ZM33.2062 9.269H35.6762C36.0662 9.269 36.3522 9.19967 36.5342 9.061C36.7248 8.91367 36.8202 8.65367 36.8202 8.281C36.8202 7.88233 36.7595 7.57467 36.6382 7.358C36.5255 7.13267 36.3435 6.97667 36.0922 6.89C35.8495 6.79467 35.5202 6.747 35.1042 6.747C34.6188 6.747 34.2375 6.82067 33.9602 6.968C33.6828 7.10667 33.4878 7.358 33.3752 7.722C33.2625 8.086 33.2062 8.60167 33.2062 9.269ZM41.9944 13.078C41.6044 13.078 41.2404 13.026 40.9024 12.922C40.5644 12.818 40.2697 12.636 40.0184 12.376C39.767 12.116 39.572 11.7563 39.4334 11.297C39.2947 10.8377 39.2254 10.2527 39.2254 9.542C39.2254 8.82267 39.2904 8.23333 39.4204 7.774C39.5504 7.306 39.7367 6.942 39.9794 6.682C40.222 6.422 40.5167 6.24 40.8634 6.136C41.21 6.032 41.5957 5.98 42.0204 5.98C42.367 5.98 42.744 5.99733 43.1514 6.032C43.5587 6.058 43.9487 6.10133 44.3214 6.162V6.773H42.2934C41.8514 6.773 41.4787 6.84667 41.1754 6.994C40.872 7.14133 40.6424 7.41867 40.4864 7.826C40.3304 8.22467 40.2524 8.80533 40.2524 9.568C40.2524 10.3047 40.3347 10.868 40.4994 11.258C40.664 11.648 40.898 11.9167 41.2014 12.064C41.5047 12.2027 41.873 12.272 42.3064 12.272H44.4254V12.87C44.226 12.9047 43.992 12.9393 43.7234 12.974C43.4634 13.0087 43.186 13.0347 42.8914 13.052C42.5967 13.0693 42.2977 13.078 41.9944 13.078ZM48.1464 13C47.6958 13 47.3231 12.9263 47.0284 12.779C46.7338 12.6317 46.5171 12.3933 46.3784 12.064C46.2398 11.7347 46.1748 11.297 46.1834 10.751L46.2224 6.903H45.1174V6.24L46.2354 6.058L46.4044 4.121H47.1974V6.058H49.1994V6.903H47.1974V10.751C47.1974 11.0543 47.2278 11.297 47.2884 11.479C47.3578 11.661 47.4444 11.7997 47.5484 11.895C47.6611 11.9903 47.7781 12.0597 47.8994 12.103C48.0208 12.1377 48.1378 12.1593 48.2504 12.168L49.0954 12.246V13H48.1464ZM50.6189 13V6.058H51.3989L51.6459 7.267C51.9579 6.89433 52.3045 6.58667 52.6859 6.344C53.0759 6.10133 53.5222 5.98 54.0249 5.98C54.1462 5.98 54.2589 5.98433 54.3629 5.993C54.4755 6.00167 54.5795 6.019 54.6749 6.045V7.098C54.5622 7.08067 54.4409 7.06767 54.3109 7.059C54.1809 7.04167 54.0509 7.033 53.9209 7.033C53.6002 7.033 53.3142 7.072 53.0629 7.15C52.8115 7.228 52.5732 7.345 52.3479 7.501C52.1225 7.657 51.8885 7.84767 51.6459 8.073V13H50.6189ZM56.1323 4.823C55.9936 4.823 55.9243 4.75367 55.9243 4.615V3.601C55.9243 3.46233 55.9936 3.393 56.1323 3.393H56.8603C56.9296 3.393 56.9773 3.41467 57.0033 3.458C57.0379 3.49267 57.0553 3.54033 57.0553 3.601V4.615C57.0553 4.75367 56.9903 4.823 56.8603 4.823H56.1323ZM55.9763 13V6.058H57.0033V13H55.9763ZM61.5071 13.078C61.1171 13.078 60.7531 13.026 60.4151 12.922C60.0771 12.818 59.7824 12.636 59.5311 12.376C59.2797 12.116 59.0847 11.7563 58.9461 11.297C58.8074 10.8377 58.7381 10.2527 58.7381 9.542C58.7381 8.82267 58.8031 8.23333 58.9331 7.774C59.0631 7.306 59.2494 6.942 59.4921 6.682C59.7347 6.422 60.0294 6.24 60.3761 6.136C60.7227 6.032 61.1084 5.98 61.5331 5.98C61.8797 5.98 62.2567 5.99733 62.6641 6.032C63.0714 6.058 63.4614 6.10133 63.8341 6.162V6.773H61.8061C61.3641 6.773 60.9914 6.84667 60.6881 6.994C60.3847 7.14133 60.1551 7.41867 59.9991 7.826C59.8431 8.22467 59.7651 8.80533 59.7651 9.568C59.7651 10.3047 59.8474 10.868 60.0121 11.258C60.1767 11.648 60.4107 11.9167 60.7141 12.064C61.0174 12.2027 61.3857 12.272 61.8191 12.272H63.9381V12.87C63.7387 12.9047 63.5047 12.9393 63.2361 12.974C62.9761 13.0087 62.6987 13.0347 62.4041 13.052C62.1094 13.0693 61.8104 13.078 61.5071 13.078ZM71.384 13.078C70.994 13.078 70.63 13.026 70.292 12.922C69.954 12.818 69.6594 12.636 69.408 12.376C69.1567 12.116 68.9617 11.7563 68.823 11.297C68.6844 10.8377 68.615 10.2527 68.615 9.542C68.615 8.82267 68.68 8.23333 68.81 7.774C68.94 7.306 69.1264 6.942 69.369 6.682C69.6117 6.422 69.9064 6.24 70.253 6.136C70.5997 6.032 70.9854 5.98 71.41 5.98C71.7567 5.98 72.1337 5.99733 72.541 6.032C72.9484 6.058 73.3384 6.10133 73.711 6.162V6.773H71.683C71.241 6.773 70.8684 6.84667 70.565 6.994C70.2617 7.14133 70.032 7.41867 69.876 7.826C69.72 8.22467 69.642 8.80533 69.642 9.568C69.642 10.3047 69.7244 10.868 69.889 11.258C70.0537 11.648 70.2877 11.9167 70.591 12.064C70.8944 12.2027 71.2627 12.272 71.696 12.272H73.815V12.87C73.6157 12.9047 73.3817 12.9393 73.113 12.974C72.853 13.0087 72.5757 13.0347 72.281 13.052C71.9864 13.0693 71.6874 13.078 71.384 13.078ZM76.5871 13.078C76.0757 13.078 75.6554 12.9263 75.3261 12.623C74.9967 12.3197 74.8321 11.8907 74.8321 11.336V10.842C74.8321 10.296 75.0097 9.854 75.3651 9.516C75.7291 9.178 76.2751 9.009 77.0031 9.009H79.3561V8.151C79.3561 7.865 79.3041 7.62233 79.2001 7.423C79.1047 7.215 78.9271 7.05467 78.6671 6.942C78.4157 6.82933 78.0474 6.773 77.5621 6.773H75.4041V6.162C75.7074 6.11 76.0584 6.06233 76.4571 6.019C76.8644 5.97567 77.3411 5.954 77.8871 5.954C78.4504 5.94533 78.9184 6.01467 79.2911 6.162C79.6637 6.30933 79.9367 6.54333 80.1101 6.864C80.2921 7.176 80.3831 7.58767 80.3831 8.099V13H79.5901L79.3951 12.207C79.3604 12.2417 79.2521 12.3023 79.0701 12.389C78.8967 12.4757 78.6714 12.5753 78.3941 12.688C78.1254 12.792 77.8307 12.883 77.5101 12.961C77.1981 13.039 76.8904 13.078 76.5871 13.078ZM77.0161 12.311C77.1721 12.3197 77.3497 12.3023 77.5491 12.259C77.7484 12.2157 77.9521 12.168 78.1601 12.116C78.3681 12.0553 78.5587 11.9947 78.7321 11.934C78.9141 11.8733 79.0614 11.8213 79.1741 11.778C79.2867 11.7347 79.3474 11.713 79.3561 11.713V9.529L77.2371 9.62C76.7431 9.63733 76.3877 9.75867 76.1711 9.984C75.9631 10.2093 75.8591 10.4997 75.8591 10.855V11.167C75.8591 11.4443 75.9154 11.6697 76.0281 11.843C76.1494 12.0077 76.2967 12.1247 76.4701 12.194C76.6521 12.2633 76.8341 12.3023 77.0161 12.311ZM82.3191 13V6.058H83.0991L83.3461 7.267C83.6581 6.89433 84.0047 6.58667 84.3861 6.344C84.7761 6.10133 85.2224 5.98 85.7251 5.98C85.8464 5.98 85.9591 5.98433 86.0631 5.993C86.1757 6.00167 86.2797 6.019 86.3751 6.045V7.098C86.2624 7.08067 86.1411 7.06767 86.0111 7.059C85.8811 7.04167 85.7511 7.033 85.6211 7.033C85.3004 7.033 85.0144 7.072 84.7631 7.15C84.5117 7.228 84.2734 7.345 84.0481 7.501C83.8227 7.657 83.5887 7.84767 83.3461 8.073V13H82.3191Z" fill="#BABEC4"/>
<path d="M8.66669 7.66666H13.3334L7.33335 16.3333V10.3333H2.66669L8.66669 1.66666V7.66666Z" fill="#4177DC"/>
</svg>
